<svg width="27" height="27" viewBox="0 0 27 27" fill="none" xmlns="http://www.w3.org/2000/svg">
<path d="M23.2957 16.5415C23.1661 15.6411 22.4708 14.9391 21.5758 14.7298C18.0968 13.9144 17.2247 11.911 17.0776 9.6889C16.4606 9.57415 15.3631 9.44995 13.5001 9.44995C11.6371 9.44995 10.5395 9.57415 9.92259 9.6889C9.77544 11.911 8.90334 13.9144 5.42439 14.7298C4.52934 14.9404 3.83409 15.6411 3.70449 16.5415L3.03354 21.1882C2.79729 22.8244 3.99879 24.3 5.67009 24.3H21.3301C23 24.3 24.2029 22.8244 23.9666 21.1882L23.2957 16.5415ZM13.5001 20.9142C11.6168 20.9142 10.09 19.4022 10.09 17.5392C10.09 15.6762 11.6168 14.1642 13.5001 14.1642C15.3833 14.1642 16.9102 15.6762 16.9102 17.5392C16.9102 19.4022 15.382 20.9142 13.5001 20.9142ZM26.9326 8.09995C26.9002 6.07495 21.7459 2.7013 13.5001 2.69995C5.25294 2.7013 0.0986421 6.07495 0.0675921 8.09995C0.0365421 10.125 0.0959422 12.7602 3.48984 12.3214C7.46019 11.8071 7.21584 10.4206 7.21584 8.4388C7.21584 7.0564 10.445 6.72295 13.5001 6.72295C16.5551 6.72295 19.783 7.0564 19.7843 8.4388C19.7843 10.4206 19.54 11.8071 23.5103 12.3214C26.9029 12.7602 26.9636 10.125 26.9326 8.09995Z" fill="#2649D4"/>
</svg>
