<svg width="60" height="61" viewBox="0 0 60 61" fill="none" xmlns="http://www.w3.org/2000/svg">
<path d="M22.0237 21.1756C22.3327 21.0423 22.6795 20.983 23.026 21.0042C23.3726 21.0254 23.7054 21.1264 23.9879 21.296L37.2085 29.2115C37.4533 29.3579 37.6529 29.5512 37.7906 29.7754C37.9283 29.9995 38.0001 30.248 38.0001 30.5001C38.0001 30.7522 37.9283 31.0007 37.7906 31.2248C37.6529 31.449 37.4533 31.6423 37.2085 31.7888L23.9879 39.7043C23.7055 39.8737 23.3728 39.9746 23.0265 39.9958C22.6801 40.017 22.3334 39.9578 22.0246 39.8246C21.7158 39.6914 21.4568 39.4894 21.276 39.2408C21.0953 38.9923 20.9998 38.7067 21.0001 38.4156V22.5846C20.9997 22.2936 21.0951 22.0081 21.2757 21.7595C21.4563 21.511 21.7151 21.3089 22.0237 21.1756Z" fill="white"/>
<circle cx="30.0001" cy="30.7847" r="29.7541" stroke="white" stroke-width="0.491803"/>
</svg>
